<svg width="512" height="512" viewBox="0 0 512 512" fill="none" xmlns="http://www.w3.org/2000/svg">
  <defs>
    <linearGradient id="bg" x1="52" y1="48" x2="458" y2="464" gradientUnits="userSpaceOnUse">
      <stop stop-color="#0A1626"/>
      <stop offset="1" stop-color="#11263B"/>
    </linearGradient>
    <linearGradient id="accent" x1="110" y1="120" x2="254" y2="264" gradientUnits="userSpaceOnUse">
      <stop stop-color="#31E1C6"/>
      <stop offset="1" stop-color="#22A8F6"/>
    </linearGradient>
    <linearGradient id="signal" x1="184" y1="138" x2="236" y2="190" gradientUnits="userSpaceOnUse">
      <stop stop-color="#FDD76B"/>
      <stop offset="1" stop-color="#FF8C42"/>
    </linearGradient>
  </defs>
  <rect x="24" y="24" width="464" height="464" rx="88" fill="url(#bg)"/>
  <rect x="76" y="88" width="188" height="188" rx="44" fill="#0F2033" stroke="#294864" stroke-width="6"/>
  <rect x="102" y="114" width="46" height="46" rx="14" fill="#15324B"/>
  <rect x="160" y="114" width="46" height="46" rx="14" fill="url(#accent)"/>
  <rect x="218" y="114" width="20" height="46" rx="10" fill="#15324B"/>
  <rect x="102" y="172" width="46" height="46" rx="14" fill="url(#accent)"/>
  <rect x="160" y="172" width="46" height="46" rx="14" fill="#15324B"/>
  <rect x="218" y="172" width="20" height="46" rx="10" fill="url(#signal)"/>
  <rect x="102" y="230" width="46" height="20" rx="10" fill="#15324B"/>
  <rect x="160" y="230" width="46" height="20" rx="10" fill="url(#signal)"/>
  <rect x="218" y="230" width="20" height="20" rx="10" fill="#15324B"/>
  <path d="M304 124C335.48 124 361 149.52 361 181V216H332V182C332 166.536 319.464 154 304 154H287V124H304Z" fill="#E8F7FF"/>
  <path d="M299 216H361V246H287V182H317V215C317 215.552 316.552 216 316 216H299Z" fill="#E8F7FF"/>
  <path d="M289 299H414" stroke="#2AE4C8" stroke-width="12" stroke-linecap="round"/>
  <path d="M289 338H382" stroke="#85BEEA" stroke-width="12" stroke-linecap="round" opacity="0.9"/>
  <path d="M289 377H354" stroke="#FDD76B" stroke-width="12" stroke-linecap="round" opacity="0.95"/>
  <text x="76" y="360" fill="#F8FCFF" font-family="Inter, Helvetica, Arial, sans-serif" font-size="58" font-weight="700">GridAI</text>
  <text x="76" y="400" fill="#9CC4DF" font-family="Inter, Helvetica, Arial, sans-serif" font-size="20" font-weight="500">AI-аналитика вакансий, ролей и навыков</text>
</svg>
