<svg width="512" height="512" viewBox="0 0 512 512" fill="none" xmlns="http://www.w3.org/2000/svg">
  <defs>
    <radialGradient id="bgGlow" cx="0" cy="0" r="1" gradientUnits="userSpaceOnUse" gradientTransform="translate(174 154) rotate(46.2) scale(368.667)">
      <stop stop-color="#143B4F"/>
      <stop offset="1" stop-color="#081A22"/>
    </radialGradient>
    <linearGradient id="grid" x1="124" y1="126" x2="245" y2="247" gradientUnits="userSpaceOnUse">
      <stop stop-color="#29E2C5"/>
      <stop offset="1" stop-color="#33C7FF"/>
    </linearGradient>
    <linearGradient id="path" x1="270" y1="164" x2="401" y2="295" gradientUnits="userSpaceOnUse">
      <stop stop-color="#C9FF73"/>
      <stop offset="1" stop-color="#45DE8F"/>
    </linearGradient>
  </defs>
  <rect width="512" height="512" fill="url(#bgGlow)"/>
  <circle cx="256" cy="256" r="220" stroke="#27546A" stroke-width="2" opacity="0.38"/>
  <circle cx="256" cy="256" r="186" fill="#0E2735" stroke="#2C6276" stroke-width="6"/>
  <rect x="118" y="130" width="124" height="124" rx="34" fill="#102838" stroke="#33697C" stroke-width="6"/>
  <rect x="139" y="151" width="28" height="28" rx="9" fill="#183E51"/>
  <rect x="176" y="151" width="28" height="28" rx="9" fill="url(#grid)"/>
  <rect x="213" y="151" width="16" height="28" rx="8" fill="#183E51"/>
  <rect x="139" y="188" width="28" height="28" rx="9" fill="url(#grid)"/>
  <rect x="176" y="188" width="28" height="28" rx="9" fill="#183E51"/>
  <rect x="213" y="188" width="16" height="28" rx="8" fill="url(#path)"/>
  <rect x="139" y="225" width="28" height="16" rx="8" fill="#183E51"/>
  <rect x="176" y="225" width="28" height="16" rx="8" fill="url(#path)"/>
  <rect x="213" y="225" width="16" height="16" rx="8" fill="#183E51"/>
  <path d="M275 270L321 224L347 250L397 200" stroke="url(#path)" stroke-width="20" stroke-linecap="round" stroke-linejoin="round"/>
  <path d="M369 200H397V228" stroke="url(#path)" stroke-width="20" stroke-linecap="round" stroke-linejoin="round"/>
  <path d="M150 314H362" stroke="#2C6173" stroke-width="4" stroke-linecap="round" opacity="0.8"/>
  <path d="M150 350H324" stroke="#29E2C5" stroke-width="18" stroke-linecap="round"/>
  <path d="M150 390H287" stroke="#C9FF73" stroke-width="18" stroke-linecap="round"/>
</svg>
