<svg width="64" height="64" viewBox="0 0 64 64" fill="none" xmlns="http://www.w3.org/2000/svg">
  <defs>
    <linearGradient id="bg" x1="6" y1="4" x2="58" y2="60" gradientUnits="userSpaceOnUse">
      <stop stop-color="#0A1626"/>
      <stop offset="1" stop-color="#12304A"/>
    </linearGradient>
    <linearGradient id="accent" x1="18" y1="18" x2="32" y2="32" gradientUnits="userSpaceOnUse">
      <stop stop-color="#2AE4C8"/>
      <stop offset="1" stop-color="#31AFFF"/>
    </linearGradient>
    <linearGradient id="signal" x1="31" y1="21" x2="38" y2="28" gradientUnits="userSpaceOnUse">
      <stop stop-color="#FDD76B"/>
      <stop offset="1" stop-color="#FF944D"/>
    </linearGradient>
  </defs>
  <rect width="64" height="64" rx="16" fill="url(#bg)"/>
  <rect x="12" y="14" width="24" height="24" rx="7" fill="#0F2033" stroke="#284A66" stroke-width="1.5"/>
  <rect x="15.5" y="17.5" width="5.5" height="5.5" rx="2" fill="#16324B"/>
  <rect x="23" y="17.5" width="5.5" height="5.5" rx="2" fill="url(#accent)"/>
  <rect x="30.5" y="17.5" width="2.5" height="5.5" rx="1.25" fill="#16324B"/>
  <rect x="15.5" y="25" width="5.5" height="5.5" rx="2" fill="url(#accent)"/>
  <rect x="23" y="25" width="5.5" height="5.5" rx="2" fill="#16324B"/>
  <rect x="30.5" y="25" width="2.5" height="5.5" rx="1.25" fill="url(#signal)"/>
  <rect x="15.5" y="32.5" width="5.5" height="2.5" rx="1.25" fill="#16324B"/>
  <rect x="23" y="32.5" width="5.5" height="2.5" rx="1.25" fill="url(#signal)"/>
  <rect x="30.5" y="32.5" width="2.5" height="2.5" rx="1.25" fill="#16324B"/>
  <path d="M45 18C49.4183 18 53 21.5817 53 26V31H48.5V26.5C48.5 24.0147 46.4853 22 44 22H41.5V18H45Z" fill="#EAF8FF"/>
  <path d="M44 31H53V35.5H41.5V26H46V30C46 30.5523 45.5523 31 45 31H44Z" fill="#EAF8FF"/>
  <path d="M41.5 43H53" stroke="#2AE4C8" stroke-width="3.2" stroke-linecap="round"/>
  <path d="M41.5 49H50" stroke="#FDD76B" stroke-width="3.2" stroke-linecap="round"/>
</svg>
